# xmcd
#
# Track frame offsets:
# 150
# 20387
# 39686
# 57131
# 77427
# 93111
# 111730
# 133233
# 151487
# 169843
# 188207
#
# Disc length: 2796 seconds
#
# Revision: 1
# Processed by: cddbd v1.5.1PL0 Copyright (c) Steve Scherf et al.
# Submitted via: CedeCatalogueitor 2.6.0.6 http://personales.ya.com/cdcatalogueitor
#
DISCID=8d0aea0b
DTITLE=Cortés - Cortés
DYEAR=2005
DGENRE=
TTITLE0=Pobre Marta
TTITLE1=No Fue Culpa Mía
TTITLE2=La Vida Da Vueltas
TTITLE3=No Juegues Con Mi Alma
TTITLE4=Me Haces Daño
TTITLE5=Confesión
TTITLE6=Mi Viejo Sueño
TTITLE7=Naturaleza De Mujer
TTITLE8=Mi Corazón No Olvida
TTITLE9=Hasta En Las Sombras
TTITLE10=Prefiero Olvidarte
EXTD=
EXTT0=
EXTT1=
EXTT2=
EXTT3=
EXTT4=
EXTT5=
EXTT6=
EXTT7=
EXTT8=
EXTT9=
EXTT10=
PLAYORDER=
